<svg width="70" height="70" viewBox="0 0 70 70" fill="none" xmlns="http://www.w3.org/2000/svg">
<path d="M56.0107 28.8032C48.2846 28.8032 42.0214 35.0664 42.0214 42.7924C42.0214 50.5184 48.2846 56.7817 56.0107 56.7817C63.7367 56.7817 69.9999 50.5185 69.9999 42.7924C69.9999 35.0663 63.7367 28.8032 56.0107 28.8032ZM56.0107 53.2344C50.2438 53.2344 45.5688 48.5595 45.5688 42.7925C45.5688 37.0258 50.2438 32.3507 56.0107 32.3507C61.7775 32.3507 66.4526 37.0258 66.4526 42.7925C66.4526 48.5593 61.7775 53.2344 56.0107 53.2344Z" fill="#365E7D"/>
<path d="M47.432 48.7431C46.2586 47.0546 45.5688 45.0045 45.5688 42.7925C45.5688 40.5806 46.2586 38.5306 47.432 36.842C49.3909 32.6806 53.34 29.6416 58.053 28.9521C57.3862 28.8546 56.7045 28.8032 56.0107 28.8032C48.2846 28.8032 42.0214 35.0664 42.0214 42.7924C42.0214 50.5185 48.2846 56.7817 56.0107 56.7817C56.7045 56.7817 57.3862 56.7305 58.053 56.6328C53.3402 55.9435 49.3909 52.9045 47.432 48.7431Z" fill="#294B64"/>
<path d="M13.9893 28.8032C6.26322 28.8032 0 35.0665 0 42.7926C0 50.5187 6.26322 56.7819 13.9893 56.7819C21.7153 56.7819 27.9785 50.5187 27.9785 42.7926C27.9785 35.0665 21.7153 28.8032 13.9893 28.8032ZM13.9893 53.2345C8.2224 53.2345 3.54744 48.5595 3.54744 42.7926C3.54744 37.0258 8.2224 32.3507 13.9893 32.3507C19.7561 32.3507 24.4312 37.0258 24.4312 42.7926C24.4312 48.5594 19.7561 53.2345 13.9893 53.2345Z" fill="#365E7D"/>
<path d="M5.41064 48.7431C4.23719 47.0546 3.54744 45.0046 3.54744 42.7926C3.54744 40.5806 4.23719 38.5306 5.41064 36.842C7.36955 32.6806 11.3187 29.6416 16.0316 28.9521C15.3649 28.8546 14.6832 28.8032 13.9893 28.8032C6.26322 28.8032 0 35.0665 0 42.7926C0 50.5187 6.26322 56.7819 13.9893 56.7819C14.683 56.7819 15.3649 56.7307 16.0316 56.633C11.3188 55.9436 7.36955 52.9046 5.41064 48.7431Z" fill="#294B64"/>
<path d="M56.0106 54.2907C49.6705 54.2907 44.5124 49.1326 44.5124 42.7925C44.5124 36.4523 49.6705 31.2942 56.0106 31.2942C62.3508 31.2942 67.5089 36.4523 67.5089 42.7925C67.5088 49.1326 62.3508 54.2907 56.0106 54.2907ZM56.0106 33.4069C50.8354 33.4069 46.6251 37.6173 46.6251 42.7925C46.6251 47.9676 50.8354 52.178 56.0106 52.178C61.1858 52.178 65.3962 47.9676 65.3962 42.7925C65.396 37.6172 61.1856 33.4069 56.0106 33.4069Z" fill="#DBEDFF"/>
<path d="M13.9893 54.2907C7.64915 54.2907 2.49103 49.1326 2.49103 42.7925C2.49103 36.4523 7.64915 31.2942 13.9893 31.2942C20.3295 31.2942 25.4877 36.4523 25.4877 42.7925C25.4875 49.1326 20.3295 54.2907 13.9893 54.2907ZM13.9893 33.4069C8.81413 33.4069 4.60374 37.6173 4.60374 42.7925C4.60374 47.9676 8.81413 52.178 13.9893 52.178C19.1646 52.178 23.375 47.9676 23.375 42.7925C23.375 37.6172 19.1646 33.4069 13.9893 33.4069Z" fill="#DBEDFF"/>
<path d="M54.8938 18.6792H46.611C46.0276 18.6792 45.5547 18.2063 45.5547 17.6229C45.5547 17.0396 46.0276 16.5667 46.611 16.5667H54.8938C55.4772 16.5667 55.9501 17.0396 55.9501 17.6229C55.9501 18.2063 55.4773 18.6792 54.8938 18.6792Z" fill="#DBEDFF"/>
<path d="M56.767 25.7594H55.4813C54.5233 25.7594 53.7467 24.9828 53.7467 24.0248C53.7467 23.0668 54.5233 22.2903 55.4813 22.2903H56.767C57.5755 22.2903 58.2334 21.6325 58.2334 20.824C58.2334 20.0154 57.5755 19.3577 56.767 19.3577C55.809 19.3577 55.0324 18.5811 55.0324 17.6231C55.0324 16.6651 55.809 15.8885 56.767 15.8885C59.4885 15.8885 61.7025 18.1026 61.7025 20.824C61.7025 23.5453 59.4885 25.7594 56.767 25.7594Z" fill="#477B9E"/>
<path d="M56.7671 23.6818H55.4814C54.9136 23.6818 54.4112 23.4077 54.0947 22.986C53.8773 23.2757 53.7469 23.6346 53.7469 24.0248C53.7469 24.9828 54.5235 25.7594 55.4814 25.7594H56.7671C59.4887 25.7594 61.7027 23.5453 61.7027 20.8239C61.7027 20.4677 61.6639 20.1203 61.5918 19.7852C61.1132 22.0093 59.1322 23.6818 56.7671 23.6818Z" fill="#365E7D"/>
<path d="M56.2952 40.535L47.6006 17.2533C47.3966 16.7068 46.7882 16.4296 46.2415 16.6333C45.695 16.8374 45.4173 17.4459 45.6215 17.9925L46.6929 20.8614H25.1499L24.1392 18.1554C23.9353 17.609 23.327 17.3316 22.7801 17.5354C22.2335 17.7395 21.956 18.348 22.1601 18.8946L23.2664 21.8569L13.6677 41.0727C13.4454 41.5176 13.5675 42.0434 13.9313 42.3506C13.8691 42.4852 13.8335 42.6346 13.8335 42.7925C13.8335 43.376 14.3064 43.8488 14.8898 43.8488H29.2532C29.8366 43.8488 30.3095 43.3759 30.3095 42.7925C30.3095 42.209 29.8366 41.7362 29.2532 41.7362H15.6978L24.2768 24.562L30.1416 40.2662C30.3002 40.691 30.7031 40.9532 31.1313 40.9532C31.2541 40.9532 31.3789 40.9316 31.5007 40.8862C32.0472 40.6821 32.3249 40.0736 32.1208 39.527L25.9389 22.974H47.4818L47.747 23.6843L33.3347 39.6476C32.9437 40.0807 32.9778 40.7486 33.4108 41.1396C33.6129 41.3221 33.866 41.4119 34.1184 41.4119C34.4068 41.4119 34.6942 41.2945 34.9027 41.0636L48.5799 25.9147L54.316 41.2742C54.4745 41.699 54.8775 41.9613 55.3057 41.9613C55.4284 41.9613 55.5533 41.9397 55.6751 41.8943C56.2217 41.69 56.4992 41.0816 56.2952 40.535Z" fill="#F87C68"/>
<path d="M56.0107 40.7773C54.8978 40.7773 53.9956 41.6796 53.9956 42.7924C53.9956 43.9053 54.8978 44.8075 56.0107 44.8075C57.1236 44.8075 58.0258 43.9053 58.0258 42.7924C58.0257 41.6796 57.1236 40.7773 56.0107 40.7773Z" fill="#365E7D"/>
<path d="M13.9893 40.7773C12.8764 40.7773 11.9742 41.6796 11.9742 42.7924C11.9742 43.9053 12.8764 44.8075 13.9893 44.8075C15.1022 44.8075 16.0044 43.9053 16.0044 42.7924C16.0044 41.6796 15.1022 40.7773 13.9893 40.7773Z" fill="#365E7D"/>
<path d="M56.0107 42.7924C56.0107 42.0471 56.4165 41.3978 57.0183 41.0491C56.7216 40.8773 56.3782 40.7773 56.0107 40.7773C54.8978 40.7773 53.9956 41.6796 53.9956 42.7924C53.9956 43.9053 54.8978 44.8075 56.0107 44.8075C56.3782 44.8075 56.7216 44.7076 57.0183 44.5357C56.4165 44.1871 56.0107 43.5378 56.0107 42.7924Z" fill="#294B64"/>
<path d="M13.9894 42.7924C13.9894 42.0471 14.3951 41.3978 14.9968 41.0491C14.7002 40.8773 14.3567 40.7773 13.9892 40.7773C12.8763 40.7773 11.9741 41.6796 11.9741 42.7924C11.9741 43.9053 12.8763 44.8075 13.9892 44.8075C14.3567 44.8075 14.7002 44.7076 14.9968 44.5357C14.3951 44.1871 13.9894 43.5378 13.9894 42.7924Z" fill="#294B64"/>
<path d="M32.0087 38.7625C29.7829 38.7625 27.9785 40.5667 27.9785 42.7926C27.9785 45.0184 29.7829 46.8228 32.0087 46.8228C34.2345 46.8228 36.0389 45.0184 36.0389 42.7926C36.0389 40.5667 34.2345 38.7625 32.0087 38.7625Z" fill="#F4DD45"/>
<path d="M31.5447 42.7925C31.5447 41.2071 32.4606 39.8361 33.7918 39.1781C33.2541 38.9123 32.6491 38.7623 32.0087 38.7623C29.7828 38.7623 27.9785 40.5666 27.9785 42.7925C27.9785 45.0183 29.7829 46.8227 32.0087 46.8227C32.6491 46.8227 33.2541 46.6727 33.7918 46.407C32.4606 45.7489 31.5447 44.3779 31.5447 42.7925Z" fill="#FCC101"/>
<path d="M32.0087 51.9007C31.4253 51.9007 30.9524 51.4278 30.9524 50.8444V42.7926C30.9524 42.2091 31.4253 41.7363 32.0087 41.7363C32.5921 41.7363 33.065 42.2092 33.065 42.7926V50.8444C33.065 51.4278 32.5921 51.9007 32.0087 51.9007Z" fill="#365E7D"/>
<path d="M33.9903 52.0392H30.027C29.4436 52.0392 28.9707 51.5663 28.9707 50.9829C28.9707 50.3994 29.4436 49.9266 30.027 49.9266H33.9903C34.5737 49.9266 35.0466 50.3995 35.0466 50.9829C35.0466 51.5663 34.5737 52.0392 33.9903 52.0392Z" fill="#477B9E"/>
<path d="M31.4927 15.4759C30.9362 14.1105 29.6087 13.2179 28.1343 13.2179H17.3125C16.4503 13.2179 15.7514 13.9168 15.7514 14.779C15.7514 16.8162 17.403 18.4678 19.4402 18.4678H22.8605C23.5839 18.4678 24.2516 18.0792 24.609 17.4502C24.9664 16.8213 25.6341 16.4326 26.3575 16.4326H30.8493C31.3428 16.4327 31.6789 15.9329 31.4927 15.4759Z" fill="#477B9E"/>
<path d="M19.519 14.7799C19.519 13.9178 20.2179 13.2189 21.08 13.2189H17.3125C16.4503 13.2189 15.7514 13.9178 15.7514 14.7799C15.7514 16.8172 17.403 18.4687 19.4402 18.4687H22.8605C22.9096 18.4687 22.9583 18.4665 23.0067 18.4631C21.0631 18.3585 19.519 16.7496 19.519 14.7799Z" fill="#365E7D"/>
</svg>
