<svg width="60" height="60" viewBox="0 0 60 60" fill="none" xmlns="http://www.w3.org/2000/svg">
<g clip-path="url(#clip0)">
<path d="M29.9999 59.8499C46.5226 59.8499 59.9169 46.4556 59.9169 29.933C59.9169 13.4103 46.5226 0.0159912 29.9999 0.0159912C13.4772 0.0159912 0.0829468 13.4103 0.0829468 29.933C0.0829468 46.4556 13.4772 59.8499 29.9999 59.8499Z" fill="#CDD6E0"/>
<path d="M29.9999 51.4981C41.91 51.4981 51.565 41.8431 51.565 29.933C51.565 18.0229 41.91 8.36792 29.9999 8.36792C18.0898 8.36792 8.43481 18.0229 8.43481 29.933C8.43481 41.8431 18.0898 51.4981 29.9999 51.4981Z" fill="#ACB3BA"/>
<path d="M30.8726 0.0156856C30.2494 0.0156856 29.8754 0.638917 29.8754 1.13757V12.4811C29.8754 13.1044 29.3768 13.603 28.7535 13.603C28.1303 13.603 27.6316 13.1044 27.6316 12.4811V1.13757C27.6316 0.514341 27.2577 0.0156856 26.6344 0.0156856C26.0112 -0.109007 25.3879 0.514341 25.3879 1.13757V12.4811C25.3879 13.1044 24.8892 13.603 24.266 13.603C23.6428 13.603 23.1441 13.1044 23.1441 12.4811V1.13757C23.1441 0.514341 22.7701 0.0156856 22.1469 0.0156856C21.5237 -0.109007 20.9003 0.514341 20.9003 1.13757V12.4811C20.9003 13.1044 20.4017 13.603 19.7784 13.603C19.1552 13.603 18.6566 13.1044 18.6566 12.4811V1.13757C18.6566 0.514341 18.2826 0.0156856 17.6594 0.0156856C17.0361 -0.109007 16.4128 0.514341 16.4128 1.13757V13.7276C16.4128 15.8467 17.2854 17.7165 18.6566 19.2123C20.9003 21.4561 22.1469 24.5725 21.8975 27.6888L19.4045 54.614C19.4045 54.8633 19.4045 55.2373 19.4045 55.4867C19.6537 58.2291 22.2715 60.2235 25.0139 59.7249C27.507 59.2263 29.1275 56.8579 28.8782 54.3648L26.5098 27.5642C26.2605 24.3232 27.5069 21.3315 29.7507 19.0878C31.1219 17.7166 31.9945 15.7221 31.9945 13.603V1.13757C31.9945 0.514341 31.4958 0.0156856 30.8726 0.0156856Z" fill="#F2F2F2"/>
<path d="M26.6343 28.0632H21.8975L19.529 54.6145C19.529 54.8638 19.529 55.2378 19.529 55.4872C19.7783 58.2296 22.396 60.224 25.1384 59.7254C27.6315 59.2268 29.252 56.8584 29.0027 54.3653L26.6343 28.0632Z" fill="#40596B"/>
<path d="M41.5928 0.0159912C41.5928 0.0159912 36.2326 2.13507 33.9888 18.2154C33.1162 24.8221 34.4875 31.3041 36.9805 37.4122C37.2298 38.0354 37.3545 38.7834 37.3545 39.5313L35.8586 55.6116C35.8586 55.8609 35.8586 56.1103 35.8586 56.3596C36.1079 58.4787 37.9777 60.0992 40.2215 59.8499C42.216 59.6007 43.5872 57.4815 43.4625 55.4871L41.5928 0.0159912Z" fill="#F2F2F2"/>
<path d="M37.3546 39.4067C37.3546 39.5314 37.3546 39.5314 37.3546 39.656L35.8588 55.7364C35.8588 55.9857 35.8588 56.2351 35.8588 56.4843C36.108 58.6034 37.9778 60.2239 40.2216 59.9747C42.2161 59.7254 43.5873 57.6062 43.4626 55.6118L42.9639 39.5314H37.3545V39.4067H37.3546Z" fill="#FF7058"/>
</g>
<defs>
<clipPath id="clip0">
<rect width="60" height="60" fill="white"/>
</clipPath>
</defs>
</svg>
