<svg width="60" height="60" viewBox="0 0 60 60" fill="none" xmlns="http://www.w3.org/2000/svg">
<g clip-path="url(#clip0)">
<path d="M60 12.9833L30.4825 0.155444C30.1748 0.0212646 29.8252 0.0212646 29.5175 0.155444L0 12.9833H60Z" fill="#C7C2C9"/>
<path d="M30.4825 0.156089C30.1748 0.0220264 29.8252 0.0220264 29.5175 0.156089L26.3598 1.52835L53.4485 12.984H60L30.4825 0.156089Z" fill="#A199A4"/>
<path d="M5.55328 56.369V51.9367C5.55328 51.4033 5.98571 50.9709 6.51903 50.9709H15.5734C16.1068 50.9709 16.5391 51.4034 16.5391 51.9367V56.369H5.55328Z" fill="#8B808E"/>
<path d="M24.5071 56.369V51.9367C24.5071 51.4033 24.9395 50.9709 25.4728 50.9709H34.5272C35.0606 50.9709 35.493 51.4034 35.493 51.9367V56.369H24.5071Z" fill="#8B808E"/>
<path d="M43.4608 56.369V51.9367C43.4608 51.4033 43.8932 50.9709 44.4265 50.9709H53.4809C54.0143 50.9709 54.4466 51.4034 54.4466 51.9367V56.369H43.4608Z" fill="#8B808E"/>
<path d="M53.4809 50.9709H49.8592C50.3926 50.9709 50.8249 51.4034 50.8249 51.9367V56.3688H54.4466V51.9367C54.4467 51.4034 54.0143 50.9709 53.4809 50.9709Z" fill="#766D78"/>
<path d="M34.5272 50.9709H30.9055C31.439 50.9709 31.8713 51.4034 31.8713 51.9367V56.3688H35.4929V51.9367C35.4929 51.4034 35.0605 50.9709 34.5272 50.9709Z" fill="#766D78"/>
<path d="M15.5734 50.9709H11.9517C12.4852 50.9709 12.9175 51.4034 12.9175 51.9367V56.3688H16.5392V51.9367C16.5393 51.4034 16.1068 50.9709 15.5734 50.9709Z" fill="#766D78"/>
<path d="M57.5855 18.3703H2.41453C1.08105 18.3703 0 17.2892 0 15.9557V12.9833H60V15.9557C60 17.2892 58.9189 18.3703 57.5855 18.3703Z" fill="#766D78"/>
<path d="M56.3783 12.9833V15.9557C56.3783 17.2892 55.2973 18.3703 53.9638 18.3703H57.5855C58.919 18.3703 60 17.2892 60 15.9557V12.9833H56.3783Z" fill="#655E67"/>
<path d="M57.5855 54.5581H2.41453C1.08105 54.5581 0 55.6392 0 56.9726V59.3415C0 59.6749 0.270234 59.9451 0.603633 59.9451H59.3964C59.7298 59.9451 60 59.6749 60 59.3415V56.9726C60 55.6392 58.9189 54.5581 57.5855 54.5581Z" fill="#766D78"/>
<path d="M57.5855 54.5581H53.9638C55.2973 54.5581 56.3783 55.6392 56.3783 56.9726V59.3415C56.3783 59.6749 56.1081 59.9451 55.7747 59.9451H59.3964C59.7298 59.9451 60 59.6749 60 59.3415V56.9726C60 55.6392 58.919 54.5581 57.5855 54.5581Z" fill="#655E67"/>
<path d="M45.7546 20.9835H52.1531V50.9703H45.7546V20.9835Z" fill="#B0AAB3"/>
<path d="M46.5502 21.4014C46.3209 22.564 45.2946 23.4405 44.0645 23.4405C42.6641 23.4405 41.5293 22.3056 41.5293 20.9052C41.5293 19.5048 42.6641 18.37 44.0645 18.37H53.8432C55.2436 18.37 56.3785 19.5048 56.3785 20.9052C56.3785 22.3056 55.2436 23.4405 53.8432 23.4405C52.613 23.4405 51.5869 22.564 51.3576 21.4014H46.5502Z" fill="#B0AAB3"/>
<path d="M53.8431 18.37H49.6178C51.0182 18.37 52.153 19.5048 52.153 20.9052C52.153 21.4225 51.9974 21.9031 51.7315 22.3041C52.1851 22.9881 52.9608 23.4405 53.8432 23.4405C55.2436 23.4405 56.3785 22.3056 56.3785 20.9052C56.3783 19.5048 55.2435 18.37 53.8431 18.37Z" fill="#A199A4"/>
<path d="M52.1529 50.9704V19.3086H48.5312V50.9704" fill="#A199A4"/>
<path d="M53.8431 24.3458C52.2046 24.3458 50.7856 23.1812 50.4691 21.5766C50.3723 21.086 50.6915 20.6099 51.1823 20.5131C51.6729 20.4161 52.1491 20.7357 52.2457 21.2263C52.3954 21.9846 53.0671 22.5352 53.8431 22.5352C54.7418 22.5352 55.4728 21.8041 55.4728 20.9055C55.4728 20.0067 54.7418 19.2757 53.8431 19.2757H44.0644C43.1657 19.2757 42.4347 20.0069 42.4347 20.9055C42.4347 21.8042 43.1657 22.5352 44.0644 22.5352C44.8404 22.5352 45.5121 21.9848 45.6618 21.2263C45.7586 20.7357 46.2348 20.4167 46.7253 20.5131C47.2159 20.6099 47.5351 21.086 47.4385 21.5766C47.1219 23.1812 45.7029 24.3458 44.0644 24.3458C42.1673 24.3458 40.6238 22.8024 40.6238 20.9052C40.6238 19.0081 42.1673 17.4646 44.0644 17.4646H53.8431C55.7403 17.4646 57.2837 19.0081 57.2837 20.9052C57.2837 22.8024 55.7403 24.3458 53.8431 24.3458Z" fill="#C7C2C9"/>
<path d="M30 9.60298C31.5002 9.60298 32.7163 8.38686 32.7163 6.8867C32.7163 5.38653 31.5002 4.17041 30 4.17041C28.4999 4.17041 27.2838 5.38653 27.2838 6.8867C27.2838 8.38686 28.4999 9.60298 30 9.60298Z" fill="#766D78"/>
<path d="M26.8008 20.9835H33.1993V50.9703H26.8008V20.9835Z" fill="#B0AAB3"/>
<path d="M27.5964 21.4014C27.3671 22.564 26.3408 23.4405 25.1107 23.4405C23.7103 23.4405 22.5755 22.3056 22.5755 20.9052C22.5755 19.5048 23.7103 18.37 25.1107 18.37H34.8894C36.2898 18.37 37.4247 19.5048 37.4247 20.9052C37.4247 22.3056 36.2898 23.4405 34.8894 23.4405C33.6592 23.4405 32.6331 22.564 32.4038 21.4014H27.5964Z" fill="#B0AAB3"/>
<path d="M34.8893 18.37H30.664C32.0644 18.37 33.1992 19.5048 33.1992 20.9052C33.1992 21.4225 33.0436 21.9031 32.7777 22.3041C33.2313 22.9881 34.007 23.4405 34.8894 23.4405C36.2898 23.4405 37.4247 22.3056 37.4247 20.9052C37.4246 19.5048 36.2897 18.37 34.8893 18.37Z" fill="#A199A4"/>
<path d="M33.1992 50.9704V19.3086H29.5775V50.9704" fill="#A199A4"/>
<path d="M34.8893 24.3458C33.2508 24.3458 31.8318 23.1812 31.5153 21.5766C31.4185 21.086 31.7377 20.6099 32.2285 20.5131C32.7191 20.4161 33.1953 20.7357 33.2919 21.2263C33.4416 21.9846 34.1133 22.5352 34.8893 22.5352C35.788 22.5352 36.5191 21.8041 36.5191 20.9055C36.5191 20.0067 35.788 19.2757 34.8893 19.2757H25.1106C24.2119 19.2757 23.4809 20.0069 23.4809 20.9055C23.4809 21.8042 24.2119 22.5352 25.1106 22.5352C25.8866 22.5352 26.5583 21.9848 26.708 21.2263C26.8048 20.7357 27.281 20.4167 27.7715 20.5131C28.2621 20.6099 28.5814 21.086 28.4847 21.5766C28.1682 23.1812 26.7491 24.3458 25.1106 24.3458C23.2135 24.3458 21.67 22.8024 21.67 20.9052C21.67 19.0081 23.2135 17.4646 25.1106 17.4646H34.8893C36.7865 17.4646 38.33 19.0081 38.33 20.9052C38.33 22.8024 36.7865 24.3458 34.8893 24.3458Z" fill="#C7C2C9"/>
<path d="M7.84705 20.9835H14.2455V50.9703H7.84705V20.9835Z" fill="#B0AAB3"/>
<path d="M8.64266 21.4014C8.41333 22.564 7.38711 23.4405 6.157 23.4405C4.75661 23.4405 3.62177 22.3056 3.62177 20.9052C3.62177 19.5048 4.75661 18.37 6.157 18.37H15.9357C17.3361 18.37 18.4709 19.5048 18.4709 20.9052C18.4709 22.3056 17.3361 23.4405 15.9357 23.4405C14.7055 23.4405 13.6794 22.564 13.45 21.4014H8.64266Z" fill="#B0AAB3"/>
<path d="M15.9356 18.37H11.7103C13.1107 18.37 14.2455 19.5048 14.2455 20.9052C14.2455 21.4225 14.0899 21.9031 13.824 22.3041C14.2776 22.9881 15.0533 23.4405 15.9357 23.4405C17.3361 23.4405 18.4709 22.3056 18.4709 20.9052C18.4708 19.5048 17.336 18.37 15.9356 18.37Z" fill="#A199A4"/>
<path d="M14.2454 50.9704V19.3086H10.6237V50.9704" fill="#A199A4"/>
<path d="M15.9356 24.3458C14.2971 24.3458 12.878 23.1812 12.5615 21.5766C12.4647 21.086 12.7839 20.6099 13.2747 20.5131C13.7654 20.4161 14.2414 20.7357 14.3382 21.2263C14.4878 21.9846 15.1596 22.5352 15.9356 22.5352C16.8343 22.5352 17.5653 21.8041 17.5653 20.9055C17.5653 20.0067 16.8343 19.2757 15.9356 19.2757H6.15687C5.25816 19.2757 4.52715 20.0069 4.52715 20.9055C4.52715 21.8042 5.25816 22.5352 6.15687 22.5352C6.93289 22.5352 7.60461 21.9848 7.75426 21.2263C7.85105 20.7357 8.3273 20.4167 8.81773 20.5131C9.3084 20.6099 9.62761 21.086 9.53094 21.5766C9.21441 23.1812 7.79539 24.3458 6.15687 24.3458C4.25972 24.3458 2.71625 22.8024 2.71625 20.9052C2.71625 19.0081 4.25972 17.4646 6.15687 17.4646H15.9356C17.8327 17.4646 19.3762 19.0081 19.3762 20.9052C19.3762 22.8024 17.8327 24.3458 15.9356 24.3458Z" fill="#C7C2C9"/>
</g>
<defs>
<clipPath id="clip0">
<rect width="60" height="60" fill="white"/>
</clipPath>
</defs>
</svg>
