<svg width="60" height="60" viewBox="0 0 60 60" fill="none" xmlns="http://www.w3.org/2000/svg">
<g clip-path="url(#clip0)">
<path d="M30 60V56.4422V54.491V17.3435H55.1825H58.3377C58.7249 17.3435 59.0388 17.6575 59.0388 18.0446V36.1458V40.771V57.5551C59.0388 57.9423 58.7249 58.2562 58.3377 58.2562H33.0319C31.9165 58.2562 30.9422 58.8588 30.4158 59.7559C30.3284 59.9048 30.1726 60 30 60Z" fill="#E94444"/>
<path d="M58.3376 17.3435H55.1825H54.4813C54.8685 17.3435 55.1825 17.6575 55.1825 18.0446V36.1459V40.7712V57.5552C55.1825 57.9424 54.8685 58.2564 54.4813 58.2564H58.3376C58.7248 58.2564 59.0387 57.9424 59.0387 57.5552V40.771V36.1458V18.0446C59.0387 17.6575 58.7249 17.3435 58.3376 17.3435Z" fill="#D83131"/>
<path d="M30 60V56.4422V54.491V17.3435H4.81748H1.66244C1.27525 17.3435 0.961304 17.6575 0.961304 18.0446V36.1458V40.771V57.5551C0.961304 57.9423 1.27525 58.2562 1.66244 58.2562H26.9681C28.0835 58.2562 29.0578 58.8588 29.5842 59.7559C29.6717 59.9048 29.8274 60 30 60Z" fill="#CA2C2C"/>
<path d="M54.1291 15.0248H31.7529C30.7848 15.0248 30 15.8096 30 16.7777V54.4909H30.2842C30.597 54.0111 31.1373 53.6933 31.7528 53.6933H54.129V15.0248H54.1291Z" fill="#D5E3F4"/>
<path d="M29.7159 54.4911H30V16.7777C30 15.8096 29.2152 15.0248 28.2472 15.0248H5.6356C5.18384 15.0248 4.81763 15.391 4.81763 15.8427V52.8752C4.81763 53.3269 5.18384 53.6931 5.6356 53.6931H28.2473C28.8627 53.6934 29.4031 54.0112 29.7159 54.4911Z" fill="#B3DAFE"/>
<path d="M54.3644 15.0248H50.1913C50.643 15.0248 51.0092 15.391 51.0092 15.8427V52.8753C51.0092 53.327 50.643 53.6933 50.1913 53.6933H54.3644C54.8162 53.6933 55.1824 53.327 55.1824 52.8753V15.8427C55.1825 15.391 54.8162 15.0248 54.3644 15.0248Z" fill="#B3DAFE"/>
<path d="M30 4.79367C29.5076 4.79367 29.1086 4.39465 29.1086 3.90223V0.891445C29.1086 0.399023 29.5076 0 30 0C30.4924 0 30.8915 0.399023 30.8915 0.891445V3.90223C30.8915 4.39465 30.4924 4.79367 30 4.79367Z" fill="#FEA95C"/>
<path d="M22.9345 6.79813C22.7065 6.79813 22.4782 6.71106 22.3041 6.53703L20.1751 4.40809C19.827 4.0598 19.827 3.49543 20.1751 3.14727C20.5234 2.79922 21.0878 2.79922 21.4359 3.14727L23.5649 5.27621C23.9131 5.62449 23.9131 6.18887 23.5649 6.53703C23.3909 6.71106 23.1626 6.79813 22.9345 6.79813Z" fill="#FEA95C"/>
<path d="M37.0655 6.79813C36.8375 6.79813 36.6092 6.71106 36.4351 6.53703C36.0869 6.18875 36.0869 5.62438 36.4351 5.27621L38.564 3.14727C38.9123 2.79922 39.4767 2.79922 39.8248 3.14727C40.173 3.49555 40.173 4.05992 39.8248 4.40809L37.6959 6.53703C37.5219 6.71106 37.2937 6.79813 37.0655 6.79813Z" fill="#FEA95C"/>
<path d="M44.8636 12.4136H41.8528C41.3604 12.4136 40.9614 12.0146 40.9614 11.5222C40.9614 11.0298 41.3604 10.6307 41.8528 10.6307H44.8636C45.356 10.6307 45.755 11.0298 45.755 11.5222C45.755 12.0146 45.356 12.4136 44.8636 12.4136Z" fill="#FEA95C"/>
<path d="M18.147 12.4136H15.1363C14.6438 12.4136 14.2448 12.0146 14.2448 11.5222C14.2448 11.0298 14.6438 10.6307 15.1363 10.6307H18.147C18.6395 10.6307 19.0385 11.0298 19.0385 11.5222C19.0385 12.0146 18.6395 12.4136 18.147 12.4136Z" fill="#FEA95C"/>
<path d="M25.2751 21.0967H9.06515C8.57273 21.0967 8.17371 20.6977 8.17371 20.2053C8.17371 19.7129 8.57273 19.3138 9.06515 19.3138H25.2751C25.7675 19.3138 26.1666 19.7129 26.1666 20.2053C26.1666 20.6977 25.7675 21.0967 25.2751 21.0967Z" fill="#384949"/>
<path d="M25.2751 40.3238H9.06515C8.57273 40.3238 8.17371 39.9248 8.17371 39.4323C8.17371 38.9399 8.57273 38.5409 9.06515 38.5409H25.2751C25.7675 38.5409 26.1666 38.9399 26.1666 39.4323C26.1666 39.9248 25.7675 40.3238 25.2751 40.3238Z" fill="#384949"/>
<path d="M25.2751 44.9523H9.06515C8.57273 44.9523 8.17371 44.5533 8.17371 44.0609C8.17371 43.5685 8.57273 43.1694 9.06515 43.1694H25.2751C25.7675 43.1694 26.1666 43.5685 26.1666 44.0609C26.1666 44.5533 25.7675 44.9523 25.2751 44.9523Z" fill="#384949"/>
<path d="M25.2751 49.9467H9.06515C8.57273 49.9467 8.17371 49.5477 8.17371 49.0553C8.17371 48.5628 8.57273 48.1638 9.06515 48.1638H25.2751C25.7675 48.1638 26.1666 48.5628 26.1666 49.0553C26.1666 49.5477 25.7675 49.9467 25.2751 49.9467Z" fill="#384949"/>
<path d="M50.7231 21.0967H34.9923C34.4999 21.0967 34.1008 20.6977 34.1008 20.2053C34.1008 19.7129 34.4999 19.3138 34.9923 19.3138H50.7231C51.2155 19.3138 51.6145 19.7129 51.6145 20.2053C51.6145 20.6977 51.2155 21.0967 50.7231 21.0967Z" fill="#384949"/>
<path d="M50.7231 26.0964H34.5654C34.073 26.0964 33.674 25.6973 33.674 25.2049C33.674 24.7125 34.073 24.3135 34.5654 24.3135H50.7231C51.2155 24.3135 51.6145 24.7125 51.6145 25.2049C51.6145 25.6972 51.2155 26.0964 50.7231 26.0964Z" fill="#384949"/>
<path d="M50.7231 30.7199H34.5654C34.073 30.7199 33.674 30.3209 33.674 29.8285C33.674 29.336 34.073 28.937 34.5654 28.937H50.7231C51.2155 28.937 51.6145 29.336 51.6145 29.8285C51.6145 30.3209 51.2155 30.7199 50.7231 30.7199Z" fill="#384949"/>
<path d="M50.7231 35.3433H34.5654C34.073 35.3433 33.674 34.9443 33.674 34.4519C33.674 33.9595 34.073 33.5604 34.5654 33.5604H50.7231C51.2155 33.5604 51.6145 33.9595 51.6145 34.4519C51.6145 34.9443 51.2155 35.3433 50.7231 35.3433Z" fill="#384949"/>
<path d="M26.3779 25.5771H33.622C34.0941 24.1719 34.8764 22.8914 35.91 21.8289C37.4309 20.2656 38.3368 18.1016 38.2361 15.7257C38.0554 11.4687 34.5816 8.01004 30.3239 7.84703C25.6237 7.66703 21.7566 11.4242 21.7566 16.0844C21.7566 18.3193 22.6466 20.3452 24.091 21.8296C25.1243 22.8917 25.906 24.1721 26.3779 25.5767V25.5771Z" fill="#FDB97E"/>
<path d="M26.3779 25.5771H33.622V28.5438C33.622 30.5441 32.0004 32.1658 30 32.1658C27.9996 32.1658 26.378 30.5441 26.378 28.5438V25.5771H26.3779Z" fill="#537983"/>
<path d="M33.5786 15.8177H30.8913V13.1306C30.8913 12.6382 30.4923 12.2391 29.9999 12.2391C29.5075 12.2391 29.1085 12.6382 29.1085 13.1306V15.8177H26.4212C25.9288 15.8177 25.5298 16.2167 25.5298 16.7091C25.5298 17.2016 25.9288 17.6006 26.4212 17.6006H29.1085V20.2878C29.1085 20.7802 29.5075 21.1793 29.9999 21.1793C30.4923 21.1793 30.8913 20.7802 30.8913 20.2878V17.6006H33.5786C34.071 17.6006 34.47 17.2016 34.47 16.7091C34.4701 16.2167 34.071 15.8177 33.5786 15.8177Z" fill="#CA2C2C"/>
<path d="M47.7573 49.3387H36.3717C35.584 49.3387 34.9453 48.7001 34.9453 47.9123V39.6101C34.9453 38.8224 35.5839 38.1837 36.3717 38.1837H47.7573C48.545 38.1837 49.1837 38.8223 49.1837 39.6101V47.9123C49.1837 48.7 48.5452 49.3387 47.7573 49.3387Z" fill="#7BACDF"/>
<path d="M10.5399 23.4019H19.7328C20.5205 23.4019 21.1592 24.0404 21.1592 24.8283V34.8287C21.1592 35.6164 20.5206 36.2551 19.7328 36.2551H10.5399C9.75214 36.2551 9.11346 35.6165 9.11346 34.8287V24.8283C9.11346 24.0405 9.75214 23.4019 10.5399 23.4019Z" fill="#7BACDF"/>
</g>
<defs>
<clipPath id="clip0">
<rect width="60" height="60" fill="white"/>
</clipPath>
</defs>
</svg>
