<svg width="60" height="60" viewBox="0 0 60 60" fill="none" xmlns="http://www.w3.org/2000/svg">
<path d="M40.3125 57.1875H8.4375L4.6875 27.1875H44.0625L40.3125 57.1875Z" fill="#E82F3E"/>
<path d="M54.375 57.1875H43.125L41.25 38.4375H56.25L54.375 57.1875Z" fill="#0296E5"/>
<path d="M55.5129 45.8075L54.9598 51.3352L42.3164 49.104L41.7446 43.3782L55.5129 45.8075Z" fill="#0296E5"/>
<path d="M57.1875 34.6875H40.3125L41.25 30.9375H56.25L57.1875 34.6875Z" fill="#EAEAE8"/>
<path d="M52.5 30.9375H50.625V21.5625L53.4375 15.9375H55.3125L52.5 22.5V30.9375Z" fill="#0276B4"/>
<path d="M21.5625 27.1875H27.1875V57.1875H21.5625V27.1875Z" fill="#CBCBCB"/>
<path d="M16.875 57.1875H12.1875L10.3125 27.1875H15.9375L16.875 57.1875Z" fill="#CBCBCB"/>
<path d="M36.5625 57.1875H31.875L32.8125 27.1875H38.4375L36.5625 57.1875Z" fill="#CBCBCB"/>
<path d="M34.1853 14.0668C34.2996 13.781 34.3565 13.4755 34.3528 13.1677C34.3491 12.8599 34.2848 12.5558 34.1635 12.2729C34.0423 11.9899 33.8665 11.7337 33.6462 11.5187C33.4259 11.3037 33.1654 11.1342 32.8795 11.0199C32.9939 10.7341 33.0508 10.4286 33.047 10.1209C33.0433 9.8131 32.9789 9.50909 32.8577 9.22619C32.7365 8.94329 32.5607 8.68704 32.3404 8.47207C32.1201 8.2571 31.8597 8.08762 31.5739 7.97331C31.2881 7.85899 30.9827 7.80209 30.6749 7.80584C30.3671 7.80959 30.0631 7.87392 29.7802 7.99516C29.4973 8.1164 29.2411 8.29218 29.0261 8.51245C28.8111 8.73272 28.6416 8.99318 28.5273 9.27895C27.9502 9.04809 27.305 9.05595 26.7336 9.3008C26.1623 9.54566 25.7116 10.0075 25.4808 10.5846C25.2499 11.1617 25.2578 11.8069 25.5026 12.3783C25.7475 12.9496 26.2093 13.4003 26.7864 13.6312C26.8108 13.6409 26.8354 13.6475 26.8599 13.6564C26.8593 13.6575 26.8587 13.6587 26.8582 13.6599C26.6274 14.237 26.6352 14.8822 26.8801 15.4536C27.1249 16.0249 27.5867 16.4756 28.1639 16.7065C28.741 16.9373 29.3862 16.9295 29.9576 16.6846C30.5289 16.4398 30.9796 15.978 31.2105 15.4008C31.2105 15.3995 31.2112 15.3982 31.2116 15.3971C31.783 15.6046 32.4127 15.5818 32.9676 15.3336C33.5225 15.0853 33.9592 14.6311 34.1853 14.0668Z" fill="#D18D28"/>
<path d="M22.0172 11.6055C21.7906 11.0267 21.3434 10.5616 20.7739 10.3125C20.2044 10.0634 19.5593 10.0508 18.9805 10.2773C18.754 9.69843 18.3068 9.23326 17.7373 8.98411C17.1678 8.73496 16.5227 8.72224 15.9438 8.94875C15.3649 9.17526 14.8998 9.62245 14.6506 10.1919C14.4015 10.7614 14.3887 11.4066 14.6153 11.9854C14.0364 12.2119 13.5712 12.6591 13.3221 13.2286C13.0729 13.7981 13.0602 14.4432 13.2867 15.0221C13.5132 15.601 13.9604 16.0661 14.5299 16.3153C15.0994 16.5644 15.7445 16.5772 16.3234 16.3507C16.3478 16.3412 16.3703 16.329 16.3937 16.3188C16.3937 16.32 16.3944 16.3212 16.3949 16.3225C16.507 16.6092 16.6745 16.8709 16.8878 17.0928C17.1011 17.3147 17.3561 17.4924 17.638 17.6157C17.92 17.7391 18.2235 17.8057 18.5313 17.8118C18.839 17.8178 19.1449 17.7632 19.4315 17.6511C19.7182 17.5389 19.9799 17.3714 20.2018 17.1581C20.4237 16.9448 20.6014 16.6899 20.7247 16.4079C20.8481 16.1259 20.9147 15.8224 20.9208 15.5147C20.9269 15.2069 20.8723 14.901 20.7601 14.6144C20.7601 14.6131 20.7589 14.6121 20.7585 14.6108C21.3173 14.3713 21.7612 13.9237 21.9961 13.3629C22.231 12.8021 22.2385 12.1718 22.0172 11.6055Z" fill="#FBB540"/>
<path d="M11.7048 5.63137C11.5926 5.34474 11.4251 5.08301 11.2118 4.86113C10.9985 4.63924 10.7436 4.46154 10.4616 4.33817C10.1796 4.2148 9.8761 4.14818 9.56837 4.14212C9.26065 4.13605 8.95474 4.19065 8.66811 4.30281C8.55595 4.01619 8.38844 3.75446 8.17513 3.53257C7.96183 3.31069 7.7069 3.13299 7.42492 3.00962C7.14294 2.88625 6.83942 2.81963 6.53169 2.81357C6.22396 2.8075 5.91806 2.8621 5.63143 2.97426C5.3448 3.08642 5.08308 3.25393 4.86119 3.46724C4.6393 3.68054 4.4616 3.93546 4.33824 4.21745C4.21487 4.49943 4.14825 4.80295 4.14218 5.11068C4.13611 5.4184 4.19072 5.72431 4.30288 6.01094C3.72401 6.23745 3.25883 6.68464 3.00968 7.25413C2.76053 7.82361 2.74781 8.46875 2.97432 9.04762C3.20083 9.62648 3.64802 10.0917 4.21751 10.3408C4.787 10.59 5.43213 10.6027 6.011 10.3762C6.03538 10.3667 6.05788 10.3546 6.08131 10.3443C6.08131 10.3456 6.08202 10.3468 6.08248 10.348C6.309 10.9269 6.75618 11.3921 7.32567 11.6412C7.89516 11.8904 8.5403 11.9031 9.11916 11.6766C9.69803 11.4501 10.1632 11.0029 10.4124 10.4334C10.6615 9.86393 10.6742 9.21879 10.4477 8.63992C10.4477 8.63863 10.4465 8.63758 10.4461 8.63641C11.0049 8.39686 11.4487 7.94939 11.6835 7.38861C11.9184 6.82782 11.9261 6.19767 11.7048 5.63137Z" fill="#D18D28"/>
<path d="M14.0625 21.5625C14.0625 20.9409 13.8156 20.3448 13.376 19.9052C12.9365 19.4657 12.3404 19.2188 11.7188 19.2188C11.7188 18.5971 11.4718 18.001 11.0323 17.5615C10.5927 17.1219 9.9966 16.875 9.375 16.875C8.7534 16.875 8.15726 17.1219 7.71772 17.5615C7.27818 18.001 7.03125 18.5971 7.03125 19.2188C6.40965 19.2188 5.81351 19.4657 5.37397 19.9052C4.93443 20.3448 4.6875 20.9409 4.6875 21.5625C4.6875 22.1841 4.93443 22.7802 5.37397 23.2198C5.81351 23.6593 6.40965 23.9062 7.03125 23.9062C7.05738 23.9062 7.0827 23.9032 7.10871 23.9024V23.9062C7.10871 24.5279 7.35564 25.124 7.79518 25.5635C8.23472 26.0031 8.83086 26.25 9.45246 26.25C10.0741 26.25 10.6702 26.0031 11.1097 25.5635C11.5493 25.124 11.7962 24.5279 11.7962 23.9062C11.7962 23.905 11.7962 23.9037 11.7962 23.9024C12.4038 23.8827 12.9799 23.6276 13.4028 23.191C13.8257 22.7543 14.0622 22.1704 14.0625 21.5625Z" fill="#FBB540"/>
<path d="M23.4375 21.5625C23.4375 20.9409 23.1906 20.3448 22.751 19.9052C22.3115 19.4657 21.7154 19.2188 21.0938 19.2188C21.0938 18.5971 20.8468 18.001 20.4073 17.5615C19.9677 17.1219 19.3716 16.875 18.75 16.875C18.1284 16.875 17.5323 17.1219 17.0927 17.5615C16.6532 18.001 16.4062 18.5971 16.4062 19.2188C15.7846 19.2188 15.1885 19.4657 14.749 19.9052C14.3094 20.3448 14.0625 20.9409 14.0625 21.5625C14.0625 22.1841 14.3094 22.7802 14.749 23.2198C15.1885 23.6593 15.7846 23.9062 16.4062 23.9062C16.4324 23.9062 16.4577 23.9032 16.4837 23.9024V23.9062C16.4837 24.5279 16.7306 25.124 17.1702 25.5635C17.6097 26.0031 18.2059 26.25 18.8275 26.25C19.4491 26.25 20.0452 26.0031 20.4847 25.5635C20.9243 25.124 21.1712 24.5279 21.1712 23.9062C21.1712 23.905 21.1712 23.9037 21.1712 23.9024C21.7788 23.8827 22.3549 23.6276 22.7778 23.191C23.2007 22.7543 23.4372 22.1704 23.4375 21.5625Z" fill="#D18D28"/>
<path d="M32.8125 21.5625C32.8125 20.9409 32.5656 20.3448 32.126 19.9052C31.6865 19.4657 31.0904 19.2188 30.4688 19.2188C30.4688 18.5971 30.2218 18.001 29.7823 17.5615C29.3427 17.1219 28.7466 16.875 28.125 16.875C27.5034 16.875 26.9073 17.1219 26.4677 17.5615C26.0282 18.001 25.7812 18.5971 25.7812 19.2188C25.1596 19.2188 24.5635 19.4657 24.124 19.9052C23.6844 20.3448 23.4375 20.9409 23.4375 21.5625C23.4375 22.1841 23.6844 22.7802 24.124 23.2198C24.5635 23.6593 25.1596 23.9062 25.7812 23.9062C25.8074 23.9062 25.8327 23.9032 25.8587 23.9024V23.9062C25.8587 24.5279 26.1056 25.124 26.5452 25.5635C26.9847 26.0031 27.5809 26.25 28.2025 26.25C28.8241 26.25 29.4202 26.0031 29.8597 25.5635C30.2993 25.124 30.5462 24.5279 30.5462 23.9062C30.5462 23.905 30.5462 23.9037 30.5462 23.9024C31.1538 23.8827 31.7299 23.6276 32.1528 23.191C32.5757 22.7543 32.8122 22.1704 32.8125 21.5625Z" fill="#FBB540"/>
<path d="M42.1875 21.5625C42.1875 20.9409 41.9406 20.3448 41.501 19.9052C41.0615 19.4657 40.4654 19.2188 39.8438 19.2188C39.8438 18.5971 39.5968 18.001 39.1573 17.5615C38.7177 17.1219 38.1216 16.875 37.5 16.875C36.8784 16.875 36.2823 17.1219 35.8427 17.5615C35.4032 18.001 35.1562 18.5971 35.1562 19.2188C34.5346 19.2188 33.9385 19.4657 33.499 19.9052C33.0594 20.3448 32.8125 20.9409 32.8125 21.5625C32.8125 22.1841 33.0594 22.7802 33.499 23.2198C33.9385 23.6593 34.5346 23.9062 35.1562 23.9062C35.1824 23.9062 35.2077 23.9032 35.2337 23.9024V23.9062C35.2337 24.5279 35.4806 25.124 35.9202 25.5635C36.3597 26.0031 36.9559 26.25 37.5775 26.25C38.1991 26.25 38.7952 26.0031 39.2347 25.5635C39.6743 25.124 39.9212 24.5279 39.9212 23.9062C39.9212 23.905 39.9212 23.9037 39.9212 23.9024C40.5288 23.8827 41.1049 23.6276 41.5278 23.191C41.9507 22.7543 42.1872 22.1704 42.1875 21.5625Z" fill="#D18D28"/>
<path d="M45.6956 11.2061C45.9703 10.6485 46.0123 10.0046 45.8123 9.41607C45.6124 8.82753 45.1868 8.34254 44.6292 8.06778C44.904 7.51019 44.946 6.86629 44.746 6.27772C44.546 5.68916 44.1204 5.20415 43.5628 4.92938C43.0052 4.65462 42.3613 4.61261 41.7727 4.8126C41.1842 5.01259 40.6992 5.4382 40.4244 5.99579C39.8668 5.72104 39.2229 5.67905 38.6343 5.87905C38.0458 6.07905 37.5608 6.50466 37.286 7.06226C37.0113 7.61985 36.9693 8.26375 37.1693 8.8523C37.3693 9.44085 37.7949 9.92585 38.3525 10.2006C38.376 10.2123 38.4001 10.2206 38.4238 10.2313C38.4238 10.2325 38.4224 10.2335 38.4218 10.2347C38.2857 10.5108 38.2054 10.811 38.1854 11.1181C38.1653 11.4252 38.206 11.7333 38.305 12.0247C38.4041 12.3162 38.5595 12.5852 38.7625 12.8166C38.9656 13.0479 39.2121 13.237 39.4882 13.373C39.7643 13.5091 40.0645 13.5894 40.3716 13.6094C40.6788 13.6295 40.9869 13.5888 41.2783 13.4898C41.5697 13.3907 41.8388 13.2353 42.0701 13.0323C42.3014 12.8293 42.4905 12.5827 42.6266 12.3066C42.6266 12.3054 42.6275 12.3042 42.6281 12.3031C43.1818 12.5541 43.8114 12.58 44.3838 12.3753C44.9563 12.1706 45.4267 11.7513 45.6956 11.2061Z" fill="#FBB540"/>
<path d="M24.375 49.6875C29.0349 49.6875 32.8125 45.9099 32.8125 41.25C32.8125 36.5901 29.0349 32.8125 24.375 32.8125C19.7151 32.8125 15.9375 36.5901 15.9375 41.25C15.9375 45.9099 19.7151 49.6875 24.375 49.6875Z" fill="#EAEAE8"/>
<path d="M55.5129 45.8075L54.9598 51.3352L42.3164 49.104L41.7446 43.3782L55.5129 45.8075Z" fill="#0276B4"/>
<path d="M39.375 34.6875H58.125V38.4375H39.375V34.6875Z" fill="#CBCBCB"/>
<path d="M44.0625 23.4375H4.6875C3.65197 23.4375 2.8125 24.277 2.8125 25.3125C2.8125 26.348 3.65197 27.1875 4.6875 27.1875H44.0625C45.098 27.1875 45.9375 26.348 45.9375 25.3125C45.9375 24.277 45.098 23.4375 44.0625 23.4375Z" fill="#EAEAE8"/>
<path d="M50.625 29.0625H52.5V30.9375H50.625V29.0625Z" fill="#015078"/>
</svg>
