<svg width="60" height="60" viewBox="0 0 60 60" fill="none" xmlns="http://www.w3.org/2000/svg">
<g clip-path="url(#clip0)">
<path d="M13.86 56.5662L15.0776 60.0001H19.4481L20.6649 56.5662H13.86Z" fill="#414451"/>
<path d="M38.6122 56.5662L39.829 60.0001H44.1996L45.4171 56.5662H38.6122Z" fill="#414451"/>
<path d="M48.5392 2.80555V54.7816C48.5348 56.342 47.2709 57.6059 45.7105 57.6103H14.2895C12.7309 57.6139 11.4643 56.3533 11.4608 54.7947C11.4608 54.7903 11.4608 54.7859 11.4608 54.7816V2.80555C11.4587 1.25815 12.7114 0.00215149 14.2587 0C14.2689 0 14.2792 0 14.2895 0.000119527H45.7104C47.2663 -0.00633495 48.5328 1.24966 48.5392 2.80555C48.5392 2.80543 48.5392 2.80543 48.5392 2.80555Z" fill="#575B6D"/>
<path d="M30.0001 52.3683C36.8966 52.3683 42.4873 46.7776 42.4873 39.8811C42.4873 32.9845 36.8966 27.3938 30.0001 27.3938C23.1036 27.3938 17.5128 32.9845 17.5128 39.8811C17.5128 46.7776 23.1036 52.3683 30.0001 52.3683Z" fill="#DBD8DD"/>
<path d="M30.0001 49.5454C35.3376 49.5454 39.6645 45.2186 39.6645 39.8811C39.6645 34.5436 35.3376 30.2167 30.0001 30.2167C24.6626 30.2167 20.3357 34.5436 20.3357 39.8811C20.3357 45.2186 24.6626 49.5454 30.0001 49.5454Z" fill="#9A9EAF"/>
<path d="M30.0001 43.5483C32.0251 43.5483 33.6667 41.9067 33.6667 39.8817C33.6667 37.8567 32.0251 36.2151 30.0001 36.2151C27.975 36.2151 26.3334 37.8567 26.3334 39.8817C26.3334 41.9067 27.975 43.5483 30.0001 43.5483Z" fill="#575B6D"/>
<path d="M30 21.9975C34.6271 21.9975 38.3781 18.2465 38.3781 13.6195C38.3781 8.99243 34.6271 5.24146 30 5.24146C25.373 5.24146 21.622 8.99243 21.622 13.6195C21.622 18.2465 25.373 21.9975 30 21.9975Z" fill="#DBD8DD"/>
<path d="M30 20.1039C33.5813 20.1039 36.4844 17.2007 36.4844 13.6195C36.4844 10.0383 33.5813 7.13513 30 7.13513C26.4188 7.13513 23.5157 10.0383 23.5157 13.6195C23.5157 17.2007 26.4188 20.1039 30 20.1039Z" fill="#9A9EAF"/>
<path d="M30.0001 16.0801C31.3587 16.0801 32.4601 14.9788 32.4601 13.6202C32.4601 12.2615 31.3587 11.1602 30.0001 11.1602C28.6415 11.1602 27.5401 12.2615 27.5401 13.6202C27.5401 14.9788 28.6415 16.0801 30.0001 16.0801Z" fill="#575B6D"/>
<path d="M29.3503 15.5979C30.2818 15.5979 31.0369 14.8428 31.0369 13.9114C31.0369 12.9799 30.2818 12.2249 29.3503 12.2249C28.4189 12.2249 27.6638 12.9799 27.6638 13.9114C27.6638 14.8428 28.4189 15.5979 29.3503 15.5979Z" fill="#575B6D"/>
</g>
<defs>
<clipPath id="clip0">
<rect width="60" height="60" fill="white"/>
</clipPath>
</defs>
</svg>
