<svg width="60" height="60" viewBox="0 0 60 60" fill="none" xmlns="http://www.w3.org/2000/svg">
<path d="M30 60C46.5685 60 60 46.5685 60 30C60 13.4315 46.5685 0 30 0C13.4315 0 0 13.4315 0 30C0 46.5685 13.4315 60 30 60Z" fill="#3B5059"/>
<path d="M49.6875 30.0001C49.6875 31.4143 47.1562 32.5247 46.8534 33.848C46.5427 35.2144 48.3361 37.3121 47.7412 38.5449C47.1366 39.7979 44.3728 39.6994 43.5131 40.7757C42.6534 41.8519 43.3594 44.5313 42.2756 45.3929C41.1919 46.2544 38.7525 44.971 37.4995 45.5757C36.2667 46.1705 35.7473 48.8874 34.3809 49.1982C33.0577 49.4991 31.4142 47.2833 30 47.2833C28.5858 47.2833 26.9423 49.4991 25.6191 49.1987C24.2527 48.8874 23.7328 46.1719 22.5 45.5757C21.247 44.971 18.8002 46.2516 17.7239 45.3924C16.6477 44.5332 17.3489 41.8566 16.4864 40.7752C15.6239 39.6938 12.863 39.7974 12.2588 38.5444C11.6639 37.3116 13.4573 35.2163 13.147 33.848C12.8438 32.5247 10.3125 31.4143 10.3125 30.0001C10.3125 28.5858 12.8437 27.4754 13.1466 26.1521C13.4573 24.7857 11.6639 22.688 12.2588 21.4552C12.8634 20.2022 15.6272 20.3007 16.4869 19.2244C17.3466 18.1482 16.643 15.4707 17.7244 14.6072C18.8058 13.7438 21.2475 15.0291 22.5005 14.4244C23.7333 13.8296 24.2527 11.1127 25.6191 10.8019C26.9419 10.5001 28.5858 12.7172 30 12.7172C31.4142 12.7172 33.0577 10.5015 34.3809 10.8019C35.7473 11.1127 36.2672 13.8296 37.5 14.4244C38.753 15.0291 41.1998 13.7485 42.2761 14.6077C43.3523 15.4669 42.6511 18.1435 43.5136 19.2249C44.3761 20.3063 47.137 20.2027 47.7412 21.4557C48.3361 22.6885 46.5427 24.7838 46.853 26.1521C47.1562 27.4754 49.6875 28.5858 49.6875 30.0001Z" fill="#EF5261"/>
<path d="M30 43.4132C37.408 43.4132 43.4133 37.4079 43.4133 30C43.4133 22.592 37.408 16.5867 30 16.5867C22.5921 16.5867 16.5867 22.592 16.5867 30C16.5867 37.4079 22.5921 43.4132 30 43.4132Z" fill="#DA364C"/>
<path d="M25.3167 28.4114H25.7526C25.8537 28.4119 25.9525 28.3817 26.0362 28.325C26.1198 28.2683 26.1844 28.1877 26.2214 28.0936C26.3869 27.6643 26.9391 26.8055 28.7653 25.5479C29.5012 25.044 30.1265 24.3953 30.6031 23.6414C31.0796 22.8876 31.3974 22.0445 31.537 21.1636C31.5767 20.8957 31.7112 20.6509 31.9161 20.4737C32.121 20.2966 32.3827 20.1989 32.6536 20.1985H32.6648C32.9595 20.1984 33.2428 20.3122 33.4556 20.5159C33.6684 20.7197 33.7944 20.9977 33.8072 21.2921C33.8616 22.546 33.7327 24.5916 32.5209 25.8596H37.7869C38.1253 25.8596 38.4498 25.994 38.6891 26.2333C38.9284 26.4726 39.0628 26.7971 39.0628 27.1355C39.0628 27.4739 38.9284 27.7984 38.6891 28.0377C38.4498 28.277 38.1253 28.4114 37.7869 28.4114L37.4184 28.4344C37.4051 28.4352 37.3925 28.4411 37.3833 28.4509C37.374 28.4606 37.3688 28.4735 37.3688 28.4869C37.3688 28.501 37.3743 28.5144 37.3843 28.5244C37.3942 28.5343 37.4077 28.5399 37.4217 28.5399H37.4747C37.6704 28.5387 37.8637 28.5831 38.0394 28.6695C38.215 28.756 38.3681 28.882 38.4866 29.0378C38.6051 29.1935 38.6858 29.3747 38.7223 29.567C38.7588 29.7593 38.75 29.9575 38.6967 30.1458C38.6163 30.3742 38.4765 30.5771 38.2917 30.7336C38.1069 30.8901 37.8838 30.9946 37.6453 31.0364C37.9228 31.145 38.1555 31.344 38.3057 31.6013C38.4559 31.8585 38.5149 32.159 38.4731 32.4539C38.438 33.2461 37.2619 33.3863 37.2619 33.3863C37.2619 33.3863 38.9775 35.4666 35.8678 36.3244C33.8277 36.8365 31.7079 36.9492 29.625 36.6563L25.4433 36.2166L25.3167 28.4114Z" fill="#FED19A"/>
<path d="M24.3192 28.1466H25.6791V36.4262H24.3192V28.1466Z" fill="white"/>
<path d="M23.5959 27.2256H21.8747C21.3569 27.2256 20.9372 27.6453 20.9372 28.1631V36.5471C20.9372 37.0649 21.3569 37.4846 21.8747 37.4846H23.5959C24.1137 37.4846 24.5334 37.0649 24.5334 36.5471V28.1631C24.5334 27.6453 24.1137 27.2256 23.5959 27.2256Z" fill="#575B6D"/>
<path d="M22.7353 29.858C23.1379 29.858 23.4642 29.5316 23.4642 29.1291C23.4642 28.7265 23.1379 28.4001 22.7353 28.4001C22.3328 28.4001 22.0064 28.7265 22.0064 29.1291C22.0064 29.5316 22.3328 29.858 22.7353 29.858Z" fill="#EEEFEE"/>
</svg>
